<svg xmlns="http://www.w3.org/2000/svg" viewBox="0 0 539 554" width="64" height="64">
  <rect width="539" height="554" fill="#040402"/>
  <!-- smile / arms -->
  <path fill="#1eff1a" d="m537.48,289.42c-2.9-4.58-8.97-5.95-13.55-3.05l-46.77,29.53c-4.58,2.89-5.95,8.95-3.06,13.53,1.87,2.95,5.05,4.57,8.31,4.57,1.8,0,3.61-.49,5.24-1.52l8.84-5.58c-2.06,23.63-7.76,46.59-17.03,68.48-11.48,27.1-27.91,51.44-48.84,72.34-20.93,20.9-45.3,37.31-72.43,48.78-28.08,11.87-57.93,17.88-88.69,17.88s-60.6-6.02-88.69-17.88c-27.13-11.46-51.5-27.87-72.43-48.78-20.93-20.9-37.36-45.24-48.84-72.34-9.27-21.89-14.98-44.85-17.03-68.48l8.84,5.58c1.63,1.03,3.44,1.52,5.24,1.52,3.26,0,6.45-1.62,8.31-4.57,2.9-4.58,1.53-10.64-3.06-13.53l-46.77-29.53c-4.58-2.89-10.65-1.53-13.55,3.05-2.9,4.58-1.53,10.64,3.06,13.53l17.52,11.06c.88,30.82,7.37,60.73,19.35,89.01,12.46,29.44,30.31,55.87,53.04,78.57,22.73,22.7,49.2,40.52,78.67,52.97,30.52,12.89,62.93,19.43,96.34,19.43s65.82-6.53,96.35-19.43c29.48-12.45,55.94-30.27,78.67-52.97,22.72-22.7,40.57-49.14,53.04-78.57,11.97-28.28,18.47-58.19,19.35-89.01l17.52-11.06c4.59-2.89,5.95-8.96,3.06-13.53Z"/>
  <!-- left eye -->
  <path fill="#1eff1a" d="m227.22,158.31c5.51-58.15-10.08-107.2-34.84-109.54-24.76-2.34-49.29,42.9-54.81,101.06-5.51,58.15,10.08,107.2,34.84,109.54,24.75,2.34,49.29,-42.9,54.81,-101.06Z"/>
  <!-- right eye -->
  <path fill="#1eff1a" d="m366.59,259.35c24.75-2.34,40.35-51.38,34.84-109.54-5.51-58.15-30.05-103.4-54.81-101.06-24.76,2.34-40.35,51.38-34.84,109.54,5.51,58.15,30.05,103.4,54.81,101.06Z"/>
  <!-- left brow -->
  <path fill="#1eff1a" d="m248.64,39.48C240.51,16.48,218.55,0,192.74,0s-47.77,16.48-55.9,39.48c15.36-12.15,34.78-19.42,55.9-19.42s40.54,7.26,55.9,19.42Z"/>
  <!-- right brow -->
  <path fill="#1eff1a" d="m402.16,39.48c-8.13-23-30.09-39.48-55.9-39.48s-47.77,16.48-55.9,39.48c15.36-12.15,34.78-19.42,55.9-19.42s40.54,7.26,55.9,19.42Z"/>
</svg>
